<?xml version="1.0" encoding="UTF-8" standalone="no"?>
<!DOCTYPE svg PUBLIC "-//W3C//DTD SVG 1.1//EN"
 "http://www.w3.org/Graphics/SVG/1.1/DTD/svg11.dtd">
<!-- Generated by graphviz version 2.40.1 (20161225.0304)
 -->
<!-- Title: dependencies Pages: 1 -->
<svg width="614pt" height="284pt"
 viewBox="0.00 0.00 614.00 284.00" xmlns="http://www.w3.org/2000/svg" xmlns:xlink="http://www.w3.org/1999/xlink">
<g id="graph0" class="graph" transform="scale(1 1) rotate(0) translate(4 280)">
<title>dependencies</title>
<polygon fill="#ffffff" stroke="transparent" points="-4,4 -4,-280 610,-280 610,4 -4,4"/>
<text text-anchor="start" x="282.0091" y="-42.4" font-family="sans-serif" font-weight="bold" font-size="14.00" fill="#000000">Legend</text>
<polygon fill="#ffffb3" stroke="transparent" points="69,-10 69,-30 89,-30 89,-10 69,-10"/>
<text text-anchor="start" x="92.629" y="-15.4" font-family="sans-serif" font-size="14.00" fill="#000000"> &#160;Declarations</text>
<polygon fill="#8dd3c7" stroke="transparent" points="182,-10 182,-30 202,-30 202,-10 182,-10"/>
<text text-anchor="start" x="205.7251" y="-15.4" font-family="sans-serif" font-size="14.00" fill="#000000"> &#160;Module</text>
<polygon fill="#80b1d3" stroke="transparent" points="268,-10 268,-30 288,-30 288,-10 268,-10"/>
<text text-anchor="start" x="291.7812" y="-15.4" font-family="sans-serif" font-size="14.00" fill="#000000"> &#160;Bootstrap</text>
<polygon fill="#fdb462" stroke="transparent" points="365,-10 365,-30 385,-30 385,-10 365,-10"/>
<text text-anchor="start" x="388.6732" y="-15.4" font-family="sans-serif" font-size="14.00" fill="#000000"> &#160;Providers</text>
<polygon fill="#fb8072" stroke="transparent" points="461,-10 461,-30 481,-30 481,-10 461,-10"/>
<text text-anchor="start" x="484.7258" y="-15.4" font-family="sans-serif" font-size="14.00" fill="#000000"> &#160;Exports</text>
<g id="clust1" class="cluster">
<title>cluster_AppModule</title>
<polygon fill="none" stroke="#000000" stroke-dasharray="1,5" points="8,-70 8,-268 598,-268 598,-70 8,-70"/>
</g>
<g id="clust2" class="cluster">
<title>cluster_AppModule_declarations</title>
<polygon fill="none" stroke="#000000" points="16,-78 16,-130 590,-130 590,-78 16,-78"/>
</g>
<g id="clust9" class="cluster">
<title>cluster_AppModule_bootstrap</title>
<polygon fill="none" stroke="#000000" points="264,-208 264,-260 388,-260 388,-208 264,-208"/>
</g>
<!-- AppComponent -->
<g id="node1" class="node">
<title>AppComponent</title>
<polygon fill="#ffffb3" stroke="#000000" points="581.9399,-122 476.0601,-122 476.0601,-86 581.9399,-86 581.9399,-122"/>
<text text-anchor="middle" x="529" y="-99.8" font-family="Times,serif" font-size="14.00" fill="#000000">AppComponent</text>
</g>
<!-- AppModule -->
<g id="node5" class="node">
<title>AppModule</title>
<polygon fill="#8dd3c7" stroke="#000000" points="367.6571,-187 364.6571,-191 343.6571,-191 340.6571,-187 284.3429,-187 284.3429,-151 367.6571,-151 367.6571,-187"/>
<text text-anchor="middle" x="326" y="-164.8" font-family="Times,serif" font-size="14.00" fill="#000000">AppModule</text>
</g>
<!-- AppComponent&#45;&gt;AppModule -->
<g id="edge1" class="edge">
<title>AppComponent&#45;&gt;AppModule</title>
<path fill="none" stroke="#000000" d="M529,-122.1061C529,-141.3391 529,-169 529,-169 529,-169 378.0617,-169 378.0617,-169"/>
<polygon fill="#000000" stroke="#000000" points="378.0618,-165.5001 368.0617,-169 378.0617,-172.5001 378.0618,-165.5001"/>
</g>
<!-- LoginComponent -->
<g id="node2" class="node">
<title>LoginComponent</title>
<polygon fill="#ffffb3" stroke="#000000" points="458.2758,-122 343.7242,-122 343.7242,-86 458.2758,-86 458.2758,-122"/>
<text text-anchor="middle" x="401" y="-99.8" font-family="Times,serif" font-size="14.00" fill="#000000">LoginComponent</text>
</g>
<!-- LoginComponent&#45;&gt;AppModule -->
<g id="edge2" class="edge">
<title>LoginComponent&#45;&gt;AppModule</title>
<path fill="none" stroke="#000000" d="M355.7202,-122.1061C355.7202,-122.1061 355.7202,-140.991 355.7202,-140.991"/>
<polygon fill="#000000" stroke="#000000" points="352.2203,-140.9909 355.7202,-150.991 359.2203,-140.991 352.2203,-140.9909"/>
</g>
<!-- RegistrationComponent -->
<g id="node3" class="node">
<title>RegistrationComponent</title>
<polygon fill="#ffffb3" stroke="#000000" points="325.766,-122 176.234,-122 176.234,-86 325.766,-86 325.766,-122"/>
<text text-anchor="middle" x="251" y="-99.8" font-family="Times,serif" font-size="14.00" fill="#000000">RegistrationComponent</text>
</g>
<!-- RegistrationComponent&#45;&gt;AppModule -->
<g id="edge3" class="edge">
<title>RegistrationComponent&#45;&gt;AppModule</title>
<path fill="none" stroke="#000000" d="M305.0273,-122.1061C305.0273,-122.1061 305.0273,-140.991 305.0273,-140.991"/>
<polygon fill="#000000" stroke="#000000" points="301.5274,-140.9909 305.0273,-150.991 308.5274,-140.991 301.5274,-140.9909"/>
</g>
<!-- WelcomeComponent -->
<g id="node4" class="node">
<title>WelcomeComponent</title>
<polygon fill="#ffffb3" stroke="#000000" points="158.472,-122 23.528,-122 23.528,-86 158.472,-86 158.472,-122"/>
<text text-anchor="middle" x="91" y="-99.8" font-family="Times,serif" font-size="14.00" fill="#000000">WelcomeComponent</text>
</g>
<!-- WelcomeComponent&#45;&gt;AppModule -->
<g id="edge4" class="edge">
<title>WelcomeComponent&#45;&gt;AppModule</title>
<path fill="none" stroke="#000000" d="M91,-122.1061C91,-141.3391 91,-169 91,-169 91,-169 274.2575,-169 274.2575,-169"/>
<polygon fill="#000000" stroke="#000000" points="274.2575,-172.5001 284.2575,-169 274.2575,-165.5001 274.2575,-172.5001"/>
</g>
<!-- AppComponent  -->
<g id="node6" class="node">
<title>AppComponent </title>
<polygon fill="#80b1d3" stroke="#000000" points="380.439,-252 271.561,-252 271.561,-216 380.439,-216 380.439,-252"/>
<text text-anchor="middle" x="326" y="-229.8" font-family="Times,serif" font-size="14.00" fill="#000000">AppComponent </text>
</g>
<!-- AppModule&#45;&gt;AppComponent  -->
<g id="edge5" class="edge">
<title>AppModule&#45;&gt;AppComponent </title>
<path fill="none" stroke="#000000" stroke-dasharray="1,5" d="M326,-187.1061C326,-187.1061 326,-205.991 326,-205.991"/>
<polygon fill="#000000" stroke="#000000" points="322.5001,-205.9909 326,-215.991 329.5001,-205.991 322.5001,-205.9909"/>
</g>
</g>
</svg>
